<svg xmlns="http://www.w3.org/2000/svg" xmlns:xlink="http://www.w3.org/1999/xlink" viewBox="0,0,256,256" width="24px" height="24px" fill-rule="nonzero"><g fill="#fff8f0" fill-rule="nonzero" stroke="none" stroke-width="1" stroke-linecap="butt" stroke-linejoin="miter" stroke-miterlimit="10" stroke-dasharray="" stroke-dashoffset="0" font-family="none" font-weight="none" font-size="none" text-anchor="none" style="mix-blend-mode: normal"><path d="M0,256v-256h256v256z" id="bgRectangle"></path></g><g fill="#3b3833" fill-rule="nonzero" stroke="none" stroke-width="1" stroke-linecap="butt" stroke-linejoin="miter" stroke-miterlimit="10" stroke-dasharray="" stroke-dashoffset="0" font-family="none" font-weight="none" font-size="none" text-anchor="none" style="mix-blend-mode: normal"><g transform="scale(10.66667,10.66667)"><path d="M2,3v15c0,1.64497 1.35503,3 3,3h14c1.64497,0 3,-1.35503 3,-3v-11h-2v11c0,0.56503 -0.43497,1 -1,1c-0.56503,0 -1,-0.43497 -1,-1v-15zM4,5h12v13c0,0.38835 0.27899,0.65799 0.41602,1h-11.41602c-0.56503,0 -1,-0.43497 -1,-1zM6,7v3h8v-3zM6,12v2h8v-2zM6,16v2h8v-2z"></path></g></g></svg>